<?xml version="1.0"?>
<svg xmlns="http://www.w3.org/2000/svg" viewBox="0 0 64 64" width="512" height="512"><g id="outline"><path d="M57,22a1,1,0,0,0,.584-1.812l-25-18a1,1,0,0,0-1.168,0l-25,18A1,1,0,0,0,7,22H31V40H13v6H24v4h5v6H27a3,3,0,0,0-3,3v3H40V59a3,3,0,0,0-3-3H35V50h5V46H51V40H33V22Zm-3.1-2H45.511L36.425,7.418ZM33,6.093,43.044,20H33ZM24,44H15V42h9Zm16-2h9v2H40ZM10.1,20,27.575,7.418,18.489,20Zm10.855,0L31,6.093V20ZM37,58a1,1,0,0,1,1,1v1H26V59a1,1,0,0,1,1-1Zm-6-2V50h2v6Zm7-14v6H36V44H34v4H30V44H28v4H26V42Z"/><path d="M3,54h.72L2.03,60.758A1,1,0,0,0,3,62H7a1,1,0,0,0,.97-.758L9.78,54h4.44l1.81,7.242A1,1,0,0,0,17,62h4a1,1,0,0,0,.97-1.242L20.28,54H21a1,1,0,0,0,1-1V51a3,3,0,0,0-3-3H8V35a3,3,0,0,0-3-3H3a1,1,0,0,0-1,1V53A1,1,0,0,0,3,54Zm3.219,6H4.281l1.5-6H7.719Zm11.562,0-1.5-6h1.938l1.5,6ZM4,34H5a1,1,0,0,1,1,1v2H4Zm0,5H6v4H4Zm0,6H6v3H4Zm0,5H19a1,1,0,0,1,1,1v1H4Z"/><path d="M61,32H59a3,3,0,0,0-3,3V48H45a3,3,0,0,0-3,3v2a1,1,0,0,0,1,1h.72l-1.69,6.758A1,1,0,0,0,43,62h4a1,1,0,0,0,.97-.758L49.78,54h4.44l1.81,7.242A1,1,0,0,0,57,62h4a1,1,0,0,0,.97-1.242L60.28,54H61a1,1,0,0,0,1-1V33A1,1,0,0,0,61,32ZM46.219,60H44.281l1.5-6h1.938Zm11.562,0-1.5-6h1.938l1.5,6ZM60,52H44V51a1,1,0,0,1,1-1H60Zm0-4H58V45h2Zm0-5H58V39h2Zm0-6H58V35a1,1,0,0,1,1-1h1Z"/></g></svg>
