<svg height="512pt" viewBox="0 0 512 512" width="512pt" xmlns="http://www.w3.org/2000/svg"><path d="m80 480h-48v-48h16v32h32zm0 0"/><path d="m288 72h96v16h-96zm0 0"/><path d="m256 40h128v16h-128zm0 0"/><path d="m288 424h96v16h-96zm0 0"/><path d="m256 456h128v16h-128zm0 0"/><path d="m464 248h48v16h-48zm0 0"/><path d="m432 232h-48v48h48zm-16 32h-16v-16h16zm0 0"/><path d="m352 216h-80v80h80zm-16 64h-48v-48h48zm0 0"/><path d="m272 312h80v16h-80zm0 0"/><path d="m272 184h80v16h-80zm0 0"/><path d="m240 200h-112v112h112zm-16 96h-80v-80h80zm0 0"/><path d="m128 328h112v16h-112zm0 0"/><path d="m128 168h112v16h-112zm0 0"/><path d="m384 200h48v16h-48zm0 0"/><path d="m384 296h48v16h-48zm0 0"/><path d="m496 120h16v16h-16zm0 0"/><path d="m88 376h16v16h-16zm0 0"/><path d="m120 392h280v104h-384v-400h80v-80h304v104h-276.6875l18.34375-18.34375-11.3125-11.3125-45.65625 45.65625h395.3125v-16h-64v-120h-331.3125l-84.6875 84.6875v427.3125h416v-120h52.6875l-18.34375 18.34375 11.3125 11.3125 45.65625-45.65625h-387.3125zm-40-364.6875v52.6875h-52.6875zm0 0"/></svg>