<svg id="drama" enable-background="new 0 0 300 300" height="512" viewBox="0 0 300 300" width="512" xmlns="http://www.w3.org/2000/svg"><path d="m268.728 134.938c-1.282-4.557-4.449-8.379-8.688-10.487l-89.099-44.285c-1.513-.752-3.1-1.24-4.729-1.509l.352-3.654c.478-4.958-1.145-9.889-4.45-13.527-3.162-3.48-7.629-5.476-12.257-5.476h-99.497c-4.628 0-9.095 1.996-12.256 5.475-3.306 3.638-4.928 8.569-4.45 13.527l4.337 45.094-3.297 13.712c-1.803 7.491-1.371 15.284 1.247 22.536 4.457 12.348 11.921 30.03 22.172 44.143 9.324 12.837 24.297 20.5 40.052 20.5 7.038 0 13.88-1.505 20.134-4.308 4.443 11.689 13.274 21.461 24.688 27.134 7.12 3.539 14.844 5.322 22.534 5.322 6.293 0 12.563-1.194 18.463-3.596 14.817-6.034 30.842-16.983 47.628-32.545 6.068-5.625 10.061-13.355 11.242-21.767l.854-6.084 23.075-36.729c2.519-4.007 3.227-8.919 1.945-13.476zm-204.142 60.848c-9.699-13.354-16.839-30.296-21.119-42.158-2.086-5.777-2.43-11.983-.995-17.949l3.454-14.364c.104-.431.136-.876.093-1.318l-4.401-45.76c-.262-2.719.616-5.41 2.409-7.382 1.671-1.841 3.92-2.855 6.333-2.855h99.497c2.413 0 4.662 1.014 6.334 2.854 1.793 1.973 2.671 4.664 2.409 7.382l-4.401 45.76c-.052.541.007 1.086.173 1.604l2.214 6.905c2.126 6.631 2.028 13.766-.275 20.091-7.771 21.34-16.76 38.11-26.716 49.846-7.841 9.244-19.297 14.545-31.43 14.545-13.202.001-25.755-6.43-33.579-17.201zm82.002-7.394c3.583-2.312 7.525-3.964 11.717-4.911 4.373-.988 9.148-.355 13.448 1.782 6.195 3.079 10.42 8.818 11.303 15.353.749 5.545.351 10.968-1.184 16.197-6.002-7.212-18.446-18.062-40.312-20.795 1.684-2.387 3.333-4.924 4.952-7.586.024-.017.051-.025.076-.04zm113.422-44.232-23.53 37.453c-.301.478-.496 1.013-.574 1.572l-.974 6.932c-.927 6.593-4.037 12.635-8.76 17.012-16.075 14.903-31.285 25.334-45.206 31.003-10.98 4.473-23.527 3.934-34.419-1.48-9.956-4.949-17.58-13.583-21.166-23.871 3.808-2.529 7.289-5.595 10.314-9.162.034-.04.067-.083.101-.123.055.006.105.023.161.026 31.902 1.97 42.873 22.633 43.317 23.497.679 1.351 2.062 2.203 3.573 2.203h.01c1.515-.003 2.898-.863 3.572-2.22 4.312-8.675 5.844-17.913 4.554-27.456-1.237-9.167-7.096-17.184-15.67-21.446-5.94-2.954-12.608-3.813-18.771-2.422-1.19.269-2.361.589-3.517.95 3.824-7.608 7.433-16.042 10.802-25.293 2.095-5.755 2.742-12.023 1.946-18.188 1.601.002 3.193.367 4.662 1.097 3.795 1.886 6.079 5.838 5.82 10.068-.136 2.205 1.543 4.102 3.748 4.237.083.005.166.007.248.007 2.098 0 3.858-1.634 3.988-3.755.456-7.446-3.565-14.401-10.244-17.721-3.151-1.567-6.624-2.186-10.058-1.842l-1.697-5.293 1.098-11.414c8.745-2.501 18.469 1.593 23.191 9.813l2.972 5.172c.74 1.288 2.087 2.008 3.473 2.008.676 0 1.36-.171 1.988-.532 1.916-1.101 2.576-3.545 1.477-5.461l-2.972-5.172c-6.007-10.455-17.931-16.047-29.326-14.176l1.303-13.548c.663.154 1.31.385 1.936.696l89.099 44.285c2.251 1.119 3.866 3.069 4.548 5.49.681 2.419.319 4.925-1.017 7.054z"/><path d="m220.799 150.341c-6.832-3.395-15.188-2.203-20.798 2.965-1.624 1.497-1.728 4.027-.23 5.652 1.495 1.624 4.026 1.728 5.652.231 3.187-2.937 7.936-3.613 11.815-1.684 3.794 1.886 6.079 5.838 5.82 10.068-.136 2.205 1.543 4.102 3.748 4.237.083.005.166.007.248.007 2.098 0 3.858-1.634 3.988-3.755.457-7.445-3.565-14.4-10.243-17.721z"/><path d="m219.183 127.139-5.917.754c-2.191.279-3.741 2.282-3.462 4.473.278 2.191 2.277 3.743 4.474 3.462l5.917-.754c9.48-1.208 18.704 4.166 21.918 12.781.601 1.609 2.127 2.603 3.749 2.603.464 0 .937-.082 1.397-.253 2.069-.772 3.121-3.076 2.35-5.146-4.498-12.056-17.286-19.593-30.426-17.92z"/><path d="m131.247 155.513c-1.178-.729-2.651-.795-3.892-.175-31.999 16.001-52.974 1.046-53.895.37-1.209-.9-2.824-1.046-4.178-.37-1.354.678-2.211 2.062-2.211 3.578 0 9.686 2.739 18.64 8.143 26.614 5.189 7.658 14.004 12.229 23.578 12.229 6.636 0 12.988-2.197 17.886-6.187 16.278-13.256 16.466-31.871 16.466-32.657 0-1.386-.717-2.673-1.897-3.402zm-19.62 29.856c-3.476 2.831-8.033 4.39-12.834 4.39-6.918 0-13.256-3.259-16.955-8.718-3.139-4.631-5.195-9.663-6.149-15.025 9.007 3.979 26.134 8.395 48.419-.459-1.406 5.529-4.712 13.485-12.481 19.812z"/><path d="m126.241 102.65c-7.629 0-14.582 4.787-17.304 11.913-.789 2.063.245 4.375 2.309 5.164.47.179.952.264 1.427.264 1.61 0 3.129-.979 3.737-2.574 1.547-4.047 5.497-6.767 9.831-6.767 4.237 0 8.042 2.522 9.693 6.425.861 2.034 3.206 2.985 5.242 2.126 2.034-.861 2.986-3.208 2.125-5.242-2.905-6.87-9.602-11.309-17.06-11.309z"/><path d="m83.67 117.076c.86 2.034 3.207 2.985 5.242 2.126 2.034-.861 2.986-3.208 2.125-5.242-2.905-6.87-9.603-11.309-17.061-11.309-7.629 0-14.582 4.787-17.304 11.913-.789 2.063.245 4.375 2.309 5.164.47.179.952.264 1.427.264 1.61 0 3.129-.979 3.737-2.574 1.547-4.047 5.497-6.767 9.831-6.767 4.238-.001 8.042 2.521 9.694 6.425z"/><path d="m111.727 93.229c.763 0 1.533-.218 2.215-.672l4.963-3.309c7.957-5.305 18.604-4.595 25.317 1.689 1.613 1.511 4.146 1.426 5.653-.186 1.51-1.613 1.427-4.144-.187-5.654-9.394-8.795-24.208-9.849-35.222-2.505l-4.963 3.309c-1.838 1.226-2.335 3.709-1.109 5.547.772 1.156 2.04 1.781 3.333 1.781z"/><path d="m81.312 89.248 4.963 3.309c.682.455 1.452.672 2.215.672 1.293 0 2.562-.625 3.332-1.781 1.226-1.838.729-4.322-1.109-5.547l-4.963-3.309c-11.015-7.343-25.829-6.289-35.222 2.505-1.613 1.51-1.696 4.041-.187 5.654 1.51 1.612 4.042 1.697 5.653.186 6.714-6.284 17.362-6.993 25.318-1.689z"/><path d="m54.646 240c2.209 0 4-1.791 4-4v-12c0-2.209-1.791-4-4-4s-4 1.791-4 4v12c0 2.209 1.791 4 4 4z"/><path d="m54.646 248c-2.209 0-4 1.791-4 4v12c0 2.209 1.791 4 4 4s4-1.791 4-4v-12c0-2.209-1.791-4-4-4z"/><path d="m46.646 240h-12c-2.209 0-4 1.791-4 4s1.791 4 4 4h12c2.209 0 4-1.791 4-4s-1.791-4-4-4z"/><path d="m74.646 240h-12c-2.209 0-4 1.791-4 4s1.791 4 4 4h12c2.209 0 4-1.791 4-4s-1.791-4-4-4z"/><path d="m196.646 76c7.72 0 14-6.28 14-14s-6.28-14-14-14-14 6.28-14 14 6.281 14 14 14zm0-20c3.309 0 6 2.691 6 6s-2.691 6-6 6-6-2.691-6-6 2.692-6 6-6z"/><circle cx="234.647" cy="52" r="4"/><circle cx="110.647" cy="256" r="4"/><circle cx="122.647" cy="36" r="4"/></svg>