<svg height="512pt" viewBox="0 0 512 512" width="512pt" xmlns="http://www.w3.org/2000/svg"><path d="m160 32h320v16h-320zm0 0"/><path d="m32 32h16v16h-16zm0 0"/><path d="m64 32h16v16h-16zm0 0"/><path d="m96 32h16v16h-16zm0 0"/><path d="m96 336h-16v-172.6875l-26.34375 26.34375-11.3125-11.3125 53.65625-53.65625zm0 0"/><path d="m128 339.3125v-211.3125h16v172.6875l26.34375-26.34375 11.3125 11.3125zm0 0"/><path d="m352 96h16v48h-16zm0 0"/><path d="m297.074219 114.433594 13.855469-8 24 41.570312-13.859376 8zm0 0"/><path d="m385.078125 148.003906 23.996094-41.570312 13.855469 8-23.996094 41.570312zm0 0"/><path d="m0 0v416h250.089844c1.878906 2.710938 3.992187 5.25 6.316406 7.59375 10.472656 10.542969 24.734375 16.453125 39.59375 16.40625v40h32v32h16v-32h32v32h16v-32h32v-40c14.859375.046875 29.117188-5.859375 39.59375-16.398438 2.324219-2.34375 4.4375-4.886718 6.316406-7.601562h42.089844v-416zm296 424c-19.011719.003906-35.398438-13.375-39.199219-32h39.199219zm0-80c-19.011719.003906-35.398438-13.375-39.199219-32h39.199219zm0-80c-19.011719.003906-35.398438-13.375-39.199219-32h39.199219zm112 200h-96v-272h96zm52.566406-64h-.566406v1.273438c-6.566406 13.921874-20.605469 22.785156-36 22.726562v-32h39.199219c-.585938 2.753906-1.46875 5.4375-2.632813 8zm35.433594 0h-18.320312c1.539062-5.195312 2.320312-10.582031 2.320312-16v-8h-56v-16c30.929688 0 56-25.070312 56-56v-8h-56v-16c30.929688 0 56-25.070312 56-56v-8h-56v-40h-128v40h-56v8c0 30.929688 25.070312 56 56 56v16h-56v8c0 30.929688 25.070312 56 56 56v16h-56v8c0 5.417969.78125 10.804688 2.320312 16h-226.320312v-320h480zm-72-56v-32h39.199219c-3.800781 18.625-20.1875 32.003906-39.199219 32zm0-80v-32h39.199219c-3.800781 18.625-20.1875 32.003906-39.199219 32zm72-200h-480v-48h480zm0 0"/><path d="m360 440c17.671875 0 32-14.328125 32-32s-14.328125-32-32-32-32 14.328125-32 32 14.328125 32 32 32zm0-48c8.835938 0 16 7.164062 16 16s-7.164062 16-16 16-16-7.164062-16-16 7.164062-16 16-16zm0 0"/><path d="m360 360c17.671875 0 32-14.328125 32-32s-14.328125-32-32-32-32 14.328125-32 32 14.328125 32 32 32zm0-48c8.835938 0 16 7.164062 16 16s-7.164062 16-16 16-16-7.164062-16-16 7.164062-16 16-16zm0 0"/><path d="m360 280c17.671875 0 32-14.328125 32-32s-14.328125-32-32-32-32 14.328125-32 32 14.328125 32 32 32zm0-48c8.835938 0 16 7.164062 16 16s-7.164062 16-16 16-16-7.164062-16-16 7.164062-16 16-16zm0 0"/></svg>