<svg id="Capa_1" enable-background="new 0 0 511.996 511.996" height="512" viewBox="0 0 511.996 511.996" width="512" xmlns="http://www.w3.org/2000/svg"><path d="m344.132 298.413c4.143 0 7.5-3.358 7.5-7.5 0-3.288-2.118-6.074-5.063-7.087v-47.134c0-2.972-1.1-5.821-3.096-8.022l-14.026-15.476c-2.26-2.493-5.485-3.922-8.85-3.922h-13.827v-46.219c0-6.795-5.527-12.323-12.322-12.323h-19.264v-19.094c0-4.142-3.357-7.5-7.5-7.5s-7.5 3.358-7.5 7.5v19.094h-19.264c-6.795 0-12.322 5.528-12.322 12.323v24.693h-51.973c-6.176 0-11.2 5.024-11.2 11.2v84.881c-2.943 1.013-5.062 3.799-5.062 7.087 0 4.142 3.357 7.5 7.5 7.5 1.121-.001 173.81-.001 176.269-.001zm-24.888-74.142 12.326 13.6v45.542h-24.8v-59.142zm-75.646-58.542h48.172v117.684h-48.172c0-11.833 0-104.581 0-117.684zm-63.173 37.017h48.173v80.667h-48.173z"/><path d="m267.684 275.807c4.143 0 7.5-3.358 7.5-7.5v-88.042c0-4.142-3.357-7.5-7.5-7.5s-7.5 3.358-7.5 7.5v88.042c0 4.142 3.358 7.5 7.5 7.5z"/><path d="m211.367 211.785h-14.718c-4.143 0-7.5 3.358-7.5 7.5s3.357 7.5 7.5 7.5h14.718c4.143 0 7.5-3.358 7.5-7.5s-3.358-7.5-7.5-7.5z"/><path d="m211.367 235.947h-14.718c-4.143 0-7.5 3.358-7.5 7.5s3.357 7.5 7.5 7.5h14.718c4.143 0 7.5-3.358 7.5-7.5s-3.358-7.5-7.5-7.5z"/><path d="m211.367 260.11h-14.718c-4.143 0-7.5 3.358-7.5 7.5s3.357 7.5 7.5 7.5h14.718c4.143 0 7.5-3.358 7.5-7.5s-3.358-7.5-7.5-7.5z"/><path d="m339.07 318.097h-38.097v-.146c0-4.142-3.357-7.5-7.5-7.5s-7.5 3.358-7.5 7.5v.146h-49.875c-4.143 0-7.5 3.358-7.5 7.5s3.357 7.5 7.5 7.5h49.875v.146c0 4.142 3.357 7.5 7.5 7.5s7.5-3.358 7.5-7.5v-.146h38.097c4.143 0 7.5-3.358 7.5-7.5s-3.358-7.5-7.5-7.5z"/><path d="m236.098 392.738h78.931v.146c0 4.142 3.357 7.5 7.5 7.5s7.5-3.358 7.5-7.5v-.146h9.041c4.143 0 7.5-3.358 7.5-7.5s-3.357-7.5-7.5-7.5h-9.041v-.146c0-4.142-3.357-7.5-7.5-7.5s-7.5 3.358-7.5 7.5v.146h-78.931c-4.143 0-7.5 3.358-7.5 7.5s3.358 7.5 7.5 7.5z"/><path d="m204.512 318.097h-31.587c-4.143 0-7.5 3.358-7.5 7.5s3.357 7.5 7.5 7.5h31.587c4.143 0 7.5-3.358 7.5-7.5s-3.357-7.5-7.5-7.5z"/><path d="m204.512 347.918h-31.587c-4.143 0-7.5 3.358-7.5 7.5s3.357 7.5 7.5 7.5h31.587c4.143 0 7.5-3.358 7.5-7.5s-3.357-7.5-7.5-7.5z"/><path d="m204.512 377.738h-31.587c-4.143 0-7.5 3.358-7.5 7.5s3.357 7.5 7.5 7.5h31.587c4.143 0 7.5-3.358 7.5-7.5s-3.357-7.5-7.5-7.5z"/><path d="m260.594 370.564c4.143 0 7.5-3.358 7.5-7.5v-.146h70.976c4.143 0 7.5-3.358 7.5-7.5s-3.357-7.5-7.5-7.5h-70.976v-.146c0-4.142-3.357-7.5-7.5-7.5s-7.5 3.358-7.5 7.5v.146h-16.996c-4.143 0-7.5 3.358-7.5 7.5s3.357 7.5 7.5 7.5h16.996v.146c0 4.142 3.358 7.5 7.5 7.5z"/><path d="m255.998 441.131c-11.573 0-20.988 9.416-20.988 20.989s9.415 20.989 20.988 20.989 20.989-9.416 20.989-20.989-9.416-20.989-20.989-20.989zm0 26.977c-3.302 0-5.988-2.687-5.988-5.989s2.687-5.989 5.988-5.989c3.303 0 5.989 2.687 5.989 5.989s-2.687 5.989-5.989 5.989z"/><path d="m375.21 82.392c0-9.912-8.063-17.975-17.976-17.975-5.334 0-187.679 0-202.474 0-9.912 0-17.977 8.063-17.977 17.975 0 12.897.001 306.665.001 330.432 0 9.912 8.063 17.976 17.975 17.976h83.737c4.143 0 7.5-3.358 7.5-7.5s-3.357-7.5-7.5-7.5h-83.736c-1.641 0-2.975-1.335-2.975-2.976v-301.107h208.425v301.106c0 1.641-1.335 2.976-2.976 2.976h-83.737c-4.143 0-7.5 3.358-7.5 7.5s3.357 7.5 7.5 7.5h83.737c9.912 0 17.976-8.064 17.976-17.976 0-14.126 0-319.146 0-330.431zm-15 0v14.325h-167.582v-17.3h164.606c1.641 0 2.976 1.334 2.976 2.975zm-208.425 0c0-1.641 1.335-2.975 2.977-2.975h22.866v17.3h-25.843z"/><path d="m287.043 46.296c4.143 0 7.5-3.358 7.5-7.5s-3.357-7.5-7.5-7.5h-62.092c-4.143 0-7.5 3.358-7.5 7.5s3.357 7.5 7.5 7.5z"/><path d="m394.688 245.998c4.143 0 7.5-3.358 7.5-7.5v-199.327c0-21.599-17.572-39.171-39.171-39.171h-214.038c-21.599 0-39.171 17.572-39.171 39.171v433.654c0 21.599 17.572 39.171 39.171 39.171h214.038c21.599 0 39.171-17.572 39.171-39.171v-199.327c0-4.142-3.357-7.5-7.5-7.5s-7.5 3.358-7.5 7.5v199.327c0 13.328-10.843 24.171-24.171 24.171h-214.038c-13.328 0-24.171-10.843-24.171-24.171v-433.654c0-13.328 10.843-24.171 24.171-24.171h214.038c13.328 0 24.171 10.843 24.171 24.171v199.327c0 4.142 3.357 7.5 7.5 7.5z"/></svg>