<svg height="512" viewBox="0 0 64 64" width="512" xmlns="http://www.w3.org/2000/svg"><g id="Paticipatation-2" data-name="Paticipatation"><path d="m18.323 53.753a1 1 0 0 1 .707-.293h5.245l6.311-6.319-.463-.464a2.975 2.975 0 0 1 -.717-1.189l-2.6 2.6-1.414-1.414 5.19-5.185-1.2-1.2a.893.893 0 0 1 -.077-.086l-.132-.131-2.367 2.367-1.414-1.414 2.365-2.365-1.175-1.171a2.924 2.924 0 0 1 -.223-.263l-2.383 2.383-1.414-1.414 2.74-2.74.433-.433a2.984 2.984 0 0 1 .847-1.777 3.024 3.024 0 0 1 .835-.581l-.125-.125a2.962 2.962 0 0 1 -.749-1.3 3.016 3.016 0 0 1 -.446.589l-4.95 4.95-1.414-1.414 4.95-4.95a.991.991 0 0 0 .032-1.375c-.017-.018-.032-.037-.048-.056a1.011 1.011 0 0 0 -1.409.024l-11.1 11.115-1.348 5.378a1.006 1.006 0 0 1 -.263.465l-.71.71 7.781 7.781z"/><path d="m32.935 43.829a.984.984 0 0 0 -.689-.266.984.984 0 0 1 -.242.03.891.891 0 0 0 -.462.257 1 1 0 0 0 0 1.416l8.188 8.2h5.24a1 1 0 0 1 .707.293l.7.7 7.781-7.781-.708-.708a1.006 1.006 0 0 1 -.263-.465l-1.343-5.381-11.111-11.124a1.022 1.022 0 0 0 -1.416 0 1 1 0 0 0 0 1.416l4.95 4.95-1.414 1.414-7.78-7.78a1.006 1.006 0 0 0 -.713-.3.527.527 0 0 0 -.115.01 1.077 1.077 0 0 0 -.588.287 1 1 0 0 0 -.288.747.96.96 0 0 0 .279.66l7.789 7.789-1.414 1.414-9.9-9.9a.921.921 0 0 0 -.4-.237.955.955 0 0 0 -.3-.05.99.99 0 0 0 -.713.287 1 1 0 0 0 0 1.416l9.9 9.9-1.414 1.414-7.78-7.78a1.025 1.025 0 0 0 -.636-.287 1.054 1.054 0 0 1 -.113-.009 1 1 0 0 0 -.956 1.044.961.961 0 0 0 .279.658l10.62 10.61-1.414 1.414z"/><path d="m8.544 46.042h4v14h-4z" transform="matrix(.707 -.707 .707 .707 -34.417 22.99)"/><path d="m25 26.9v-5.9h2v6a2.931 2.931 0 0 1 -.35 1.376 2.946 2.946 0 0 1 .2.5 2.942 2.942 0 0 1 .444-.585 2.989 2.989 0 0 1 1.706-.839v-2.452h2v2.874a2.934 2.934 0 0 1 .537.419l.131.131a2.841 2.841 0 0 1 1.332-1.388v-2.036h2v1.773a2.987 2.987 0 0 1 1.487.81l.513.517v-3.1h2v1.909a3.126 3.126 0 0 1 2-.012v-10.62l-2.857-4.762a1 1 0 0 1 -.143-.515v-1h-11v1a1 1 0 0 1 -.293.707l-3.707 3.707v11.486a3.009 3.009 0 0 1 2 0z"/><path d="m46.455 51.041h13.999v4.001h-13.999z" transform="matrix(.708 -.706 .706 .708 -21.85 53.236)"/><path d="m26 4h14v4h-14z"/><path d="m19.65 17.561-1.3-1.52a21.031 21.031 0 0 0 -7.115 19.108l1.977-.3a19.189 19.189 0 0 1 -.212-2.849 18.987 18.987 0 0 1 6.65-14.439z"/><path d="m33.049 52.975-.1-2c-.63.031-1.272.031-1.9 0l-.1 2c.347.016.7.025 1.049.025s.702-.009 1.051-.025z"/><path d="m52.9 34.1c.069-.691.1-1.4.1-2.1a20.986 20.986 0 0 0 -7.35-15.959l-1.3 1.52a18.987 18.987 0 0 1 6.65 14.439c0 .636-.032 1.276-.094 1.9z"/><path d="m9.5 36.792a23.039 23.039 0 0 1 12.917-25.707l-.834-1.817a25.042 25.042 0 0 0 -14.04 27.94z"/><path d="m28.166 54.682-.332 1.972a25.253 25.253 0 0 0 8.332 0l-.332-1.972a23.38 23.38 0 0 1 -7.668 0z"/><path d="m55 32a23.126 23.126 0 0 1 -.5 4.792l1.957.416a25.044 25.044 0 0 0 -11.957-26.863l-1 1.732a23.087 23.087 0 0 1 11.5 19.923z"/></g></svg>