<?xml version="1.0" encoding="iso-8859-1"?>
<!-- Generator: Adobe Illustrator 18.0.0, SVG Export Plug-In . SVG Version: 6.00 Build 0)  -->
<!DOCTYPE svg PUBLIC "-//W3C//DTD SVG 1.1//EN" "http://www.w3.org/Graphics/SVG/1.1/DTD/svg11.dtd">
<svg version="1.1" id="Capa_1" xmlns="http://www.w3.org/2000/svg" xmlns:xlink="http://www.w3.org/1999/xlink" x="0px" y="0px"
	 viewBox="0 0 303.855 303.855" style="enable-background:new 0 0 303.855 303.855;" xml:space="preserve">
<g>
	<path d="M151.929,120.661c1.758,0,3.441-0.707,4.672-1.961c7.576-7.719,21.701-24.76,21.701-44.542
		c0-18.825-12.79-46.459-20.556-61.505c-1.124-2.177-3.364-3.548-5.814-3.55c-2.45-0.001-4.696,1.367-5.82,3.544
		c-7.766,15.045-20.559,42.684-20.559,61.511c0,19.784,14.126,36.827,21.702,44.544
		C148.486,119.956,150.172,120.661,151.929,120.661z"/>
	<path d="M143.33,142.909c-1.496-11.114-5.426-24.983-15.294-34.851C114.725,94.746,86.141,84.25,70.009,79.102
		c-2.334-0.745-4.887-0.131-6.621,1.601c-1.733,1.732-2.354,4.287-1.609,6.621c5.147,16.13,15.644,44.719,28.957,58.032
		c7.681,7.681,17.787,11.761,27.131,13.901C123.955,151.021,132.952,145.059,143.33,142.909z"/>
	<path d="M185.776,158.969c9.403-2.126,19.604-6.211,27.343-13.949c13.313-13.313,23.81-41.902,28.957-58.032
		c0.745-2.334,0.124-4.889-1.609-6.621c-1.733-1.732-4.287-2.346-6.621-1.601c-16.131,5.147-44.715,15.644-58.026,28.955
		c-9.965,9.965-13.875,24.011-15.338,35.178C170.757,145.016,179.683,150.869,185.776,158.969z"/>
	<path d="M302.844,210.692c-0.85-3.228-4-5.294-7.301-4.799c-33.676,5.052-69.218-22.034-101.467-17.668
		c-1.958,21.538-20.109,38.471-42.149,38.471c-22.04,0-40.191-16.933-42.149-38.471c-32.248-4.366-67.79,22.72-101.466,17.668
		c-3.301-0.495-6.451,1.571-7.301,4.799c-7.641,29.002,29.406,75.095,65.835,82.736c26.415,5.54,66.174-6.913,85.082-26.158
		c18.909,19.245,58.668,31.698,85.083,26.158C273.438,285.787,310.486,239.694,302.844,210.692z M121.598,252.502
		c-0.685,1.773-2.058,3.192-3.806,3.939c-7.715,3.295-21.835,8.14-34.639,6.193c-22.892-3.48-29.591-18.855-31.551-27.556
		c-0.787-3.492,1.17-7.024,4.551-8.199c6.614-2.298,18.516-5.356,30.96-3.297c21.847,3.616,30.783,15.731,34.319,23.446
		C122.223,248.755,122.283,250.729,121.598,252.502z M252.253,235.077c-1.96,8.701-8.66,24.076-31.551,27.556
		c-12.804,1.947-26.924-2.898-34.639-6.193c-1.748-0.746-3.121-2.166-3.806-3.939c-0.685-1.773-0.625-3.747,0.167-5.474
		c3.536-7.715,12.473-19.83,34.319-23.446c12.443-2.059,24.346,0.999,30.96,3.297C251.083,228.053,253.04,231.585,252.253,235.077z"
		/>
	<circle cx="151.927" cy="184.363" r="22.333"/>
</g>
<g>
</g>
<g>
</g>
<g>
</g>
<g>
</g>
<g>
</g>
<g>
</g>
<g>
</g>
<g>
</g>
<g>
</g>
<g>
</g>
<g>
</g>
<g>
</g>
<g>
</g>
<g>
</g>
<g>
</g>
</svg>
